<svg width="626" height="524" viewBox="0 0 626 524" fill="none" xmlns="http://www.w3.org/2000/svg">
<path d="M238.803 464.673L295.703 496.255L467.724 400.768L410.824 369.187L238.803 464.673Z" fill="url(#paint0_linear_230_54)" stroke="black" stroke-width="2.6" stroke-linecap="round" stroke-linejoin="round"/>
<path d="M238.803 457.108L295.703 476.095L467.724 380.608L410.824 361.627L238.803 457.108Z" fill="#2A9D8F" stroke="black" stroke-width="2.6" stroke-linecap="round" stroke-linejoin="round"/>
<path d="M238.803 457.108V464.673L295.703 496.255V476.095L238.803 457.108Z" fill="black" stroke="black" stroke-width="2.6" stroke-linecap="round" stroke-linejoin="round"/>
<path d="M295.703 476.094L467.724 380.608V400.768L295.703 496.255V476.094Z" fill="#2A9D8F" stroke="black" stroke-width="2.6" stroke-linecap="round" stroke-linejoin="round"/>
<path d="M394.998 378.751L434.596 392.337L454.345 381.371L414.746 367.791L394.998 378.751Z" fill="url(#paint1_linear_230_54)" stroke="black" stroke-width="2.6" stroke-linecap="round" stroke-linejoin="round"/>
<path d="M403.927 373.795L415.778 377.754L426.597 371.75L414.747 367.791L403.927 373.795Z" fill="url(#paint2_linear_230_54)" stroke="black" stroke-width="2.6" stroke-linecap="round" stroke-linejoin="round"/>
<path d="M247.952 455.171L296.266 471.104L316.015 453.843L267.701 445.469L247.952 455.171Z" fill="url(#paint3_linear_230_54)" stroke="black" stroke-width="2.6" stroke-linecap="round" stroke-linejoin="round"/>
<path d="M247.952 449.902L296.266 454.499L316.015 443.533L267.701 438.936L247.952 449.902Z" fill="url(#paint4_linear_230_54)" stroke="black" stroke-width="2.6" stroke-linecap="round" stroke-linejoin="round"/>
<path d="M247.952 449.902V455.171L296.266 471.105V454.499L247.952 449.902Z" fill="black" stroke="black" stroke-width="2.6" stroke-linecap="round" stroke-linejoin="round"/>
<path d="M316.015 443.533V460.144L296.266 471.104V454.499L316.015 443.533Z" fill="url(#paint5_linear_230_54)" stroke="black" stroke-width="2.6" stroke-linecap="round" stroke-linejoin="round"/>
<path d="M289.748 453.889L309.497 442.929" stroke="black" stroke-width="2.6" stroke-linecap="round" stroke-linejoin="round"/>
<path d="M282.448 453.194L302.197 442.234" stroke="black" stroke-width="2.6" stroke-linecap="round" stroke-linejoin="round"/>
<path d="M275.154 452.499L294.903 441.539" stroke="black" stroke-width="2.6" stroke-linecap="round" stroke-linejoin="round"/>
<path d="M267.86 451.804L287.609 440.844" stroke="black" stroke-width="2.6" stroke-linecap="round" stroke-linejoin="round"/>
<path d="M260.561 451.109L280.309 440.143" stroke="black" stroke-width="2.6" stroke-linecap="round" stroke-linejoin="round"/>
<path d="M253.267 450.408L273.015 439.448" stroke="black" stroke-width="2.6" stroke-linecap="round" stroke-linejoin="round"/>
<path d="M394.998 373.482L434.596 387.062L454.345 376.102L414.746 362.521L394.998 373.482Z" fill="url(#paint6_linear_230_54)" stroke="black" stroke-width="2.6" stroke-miterlimit="10" stroke-linecap="round" stroke-linejoin="round"/>
<path d="M394.998 373.482V378.751L434.596 392.337V387.062L394.998 373.482Z" fill="black" stroke="black" stroke-width="2.6" stroke-linecap="round" stroke-linejoin="round"/>
<path d="M454.345 376.102V381.371L434.596 392.337V387.062L454.345 376.102Z" fill="url(#paint7_linear_230_54)" stroke="black" stroke-width="2.6" stroke-miterlimit="10" stroke-linecap="round" stroke-linejoin="round"/>
<path d="M403.927 368.207L415.778 372.16L426.597 366.156L414.747 362.203L403.927 368.207Z" fill="url(#paint8_linear_230_54)" stroke="black" stroke-width="2.6" stroke-linecap="round" stroke-linejoin="round"/>
<path d="M403.927 368.133V373.795L415.778 377.754V372.086L403.927 368.133Z" fill="black" stroke="black" stroke-width="2.6" stroke-linecap="round" stroke-linejoin="round"/>
<path d="M426.597 366.144V371.75L415.778 377.754V372.148L426.597 366.144Z" fill="url(#paint9_linear_230_54)" stroke="black" stroke-width="2.6" stroke-linecap="round" stroke-linejoin="round"/>
<path d="M436.403 374.131C436.184 371.767 434.821 369.836 432.866 369.836C430.911 369.836 429.595 371.772 429.329 374.131C429.056 376.563 428.825 378.175 428.872 378.42C428.955 378.842 430.348 379.748 433.056 379.748C435.763 379.748 436.889 378.118 436.877 377.686C436.866 377.253 436.516 375.276 436.409 374.131H436.403Z" fill="url(#paint10_linear_230_54)" stroke="black" stroke-width="2.6" stroke-linecap="round" stroke-linejoin="round"/>
<path d="M335.076 406.744L374.674 420.324L394.423 409.364L354.825 395.784L335.076 406.744Z" fill="url(#paint11_linear_230_54)" stroke="black" stroke-width="2.6" stroke-linecap="round" stroke-linejoin="round"/>
<path d="M335.076 406.744V412.013L374.674 425.594V420.325L335.076 406.744Z" fill="black" stroke="black" stroke-width="2.6" stroke-linecap="round" stroke-linejoin="round"/>
<path d="M394.423 409.364V414.634L374.675 425.594V420.325L394.423 409.364Z" fill="url(#paint12_linear_230_54)" stroke="black" stroke-width="2.6" stroke-linecap="round" stroke-linejoin="round"/>
<path d="M344.005 406.516L355.862 410.464L366.675 404.465L354.825 400.512L344.005 406.516Z" fill="url(#paint13_linear_230_54)" stroke="black" stroke-width="2.6" stroke-miterlimit="10" stroke-linecap="round" stroke-linejoin="round"/>
<path d="M380.57 410.578C380.422 409.017 379.527 407.741 378.235 407.741C376.944 407.741 376.079 409.023 375.901 410.578C375.723 412.184 375.569 413.249 375.599 413.409C375.652 413.688 376.57 414.286 378.36 414.286C380.149 414.286 380.89 413.21 380.884 412.925C380.878 412.64 380.647 411.335 380.576 410.578H380.57Z" fill="url(#paint14_linear_230_54)" stroke="black" stroke-width="2.6" stroke-linecap="round" stroke-linejoin="round"/>
<path d="M304.917 423.486L344.515 437.067L364.264 426.107L324.666 412.52L304.917 423.486Z" fill="url(#paint15_linear_230_54)" stroke="black" stroke-width="2.6" stroke-linecap="round" stroke-linejoin="round"/>
<path d="M304.917 423.486V428.756L344.515 442.336V437.067L304.917 423.486Z" fill="black" stroke="black" stroke-width="2.6" stroke-linecap="round" stroke-linejoin="round"/>
<path d="M364.264 426.107V431.376L344.515 442.336V437.067L364.264 426.107Z" fill="url(#paint16_linear_230_54)" stroke="black" stroke-width="2.6" stroke-linecap="round" stroke-linejoin="round"/>
<path d="M346.69 426.517C346.47 424.153 344.74 422.359 342.785 422.359C340.83 422.359 339.058 424.296 338.791 426.654C338.702 427.588 338.791 428.426 338.791 428.426C338.874 428.847 340.267 429.753 342.974 429.753C345.682 429.753 346.808 428.124 346.796 427.691C346.784 427.258 346.802 427.662 346.695 426.517H346.69Z" fill="url(#paint17_linear_230_54)" stroke="black" stroke-width="2.6" stroke-linecap="round" stroke-linejoin="round"/>
<path d="M327.913 422.25C329.24 421.481 329.056 420.519 327.504 420.103C325.951 419.681 323.623 419.966 322.301 420.729C320.98 421.493 321.158 422.461 322.71 422.877C324.263 423.299 326.591 423.014 327.913 422.25Z" fill="black" stroke="black" stroke-width="2.6" stroke-linecap="round" stroke-linejoin="round"/>
<path d="M331.746 416.964C331.764 415.802 331.764 413.153 331.764 413.153L318.468 414.087C318.474 414.047 318.468 418.205 318.468 418.205C318.468 418.205 318.48 418.205 318.486 418.205C318.379 419.054 319.143 419.835 320.785 420.279C323.581 421.037 327.782 420.53 330.176 419.145C331.088 418.616 331.598 418.04 331.734 417.482C331.734 417.436 331.74 417.3 331.746 417.112C331.746 417.066 331.758 417.015 331.746 416.969V416.964Z" fill="url(#paint18_linear_230_54)" stroke="black" stroke-width="2.6" stroke-linecap="round" stroke-linejoin="round"/>
<path d="M330.176 415.027C332.564 413.643 332.238 411.905 329.441 411.147C326.644 410.39 322.443 410.897 320.05 412.281C317.662 413.665 317.988 415.403 320.784 416.16C323.581 416.918 327.782 416.411 330.176 415.027Z" fill="url(#paint19_linear_230_54)" stroke="black" stroke-width="2.6" stroke-linecap="round" stroke-linejoin="round"/>
<path d="M365.236 390.002L404.834 403.583L424.583 392.622L384.984 379.042L365.236 390.002Z" fill="url(#paint20_linear_230_54)" stroke="black" stroke-width="2.6" stroke-linecap="round" stroke-linejoin="round"/>
<path d="M365.236 390.001V395.271L404.834 408.857V403.582L365.236 390.001Z" fill="black" stroke="black" stroke-width="2.6" stroke-linecap="round" stroke-linejoin="round"/>
<path d="M424.582 392.622V397.892L404.834 408.858V403.583L424.582 392.622Z" fill="url(#paint21_linear_230_54)" stroke="black" stroke-width="2.6" stroke-linecap="round" stroke-linejoin="round"/>
<path d="M390.583 382.18C395.792 383.901 396.835 388.27 396.835 388.27L387.188 393.625C387.188 393.625 386.027 388.418 380.807 386.652L390.583 382.18Z" fill="url(#paint22_linear_230_54)" stroke="black" stroke-width="2.6" stroke-linecap="round" stroke-linejoin="round"/>
<path d="M389.57 381.787C388.29 381.332 388.877 380.34 387.739 380.642L375.599 387C376.547 386.134 378.087 385.69 380.57 386.783L389.57 381.787Z" fill="url(#paint23_linear_230_54)" stroke="black" stroke-width="2.6" stroke-linecap="round" stroke-linejoin="round"/>
<path d="M374.165 390.315L387.194 392.622C387.194 392.622 386.163 388.196 380.114 386.641C374.064 385.08 374.165 390.321 374.165 390.321V390.315Z" fill="black" stroke="black" stroke-width="2.6" stroke-linecap="round" stroke-linejoin="round"/>
<path d="M468.619 412.538L475.824 401.179C476.037 401.258 463.63 394.366 460.318 392.531C460.11 392.355 459.879 392.229 459.618 392.144C459.518 392.087 459.482 392.07 459.541 392.098C459.541 392.098 459.541 392.11 459.541 392.115C458.819 391.91 457.936 392.024 456.97 392.565L455.139 393.579C452.781 394.89 450.849 398.103 450.849 400.723C450.849 402.005 451.317 402.91 452.064 403.355L452.087 403.366C452.087 403.366 452.123 403.383 452.135 403.395L468.607 412.538H468.619Z" fill="black" stroke="black" stroke-width="2.6" stroke-linecap="round" stroke-linejoin="round"/>
<path d="M471.682 402.751C469.324 404.061 467.392 407.274 467.392 409.894C467.392 412.515 469.324 413.586 471.682 412.275L473.513 411.261C475.871 409.951 477.803 406.738 477.803 404.118C477.803 401.497 475.871 400.426 473.513 401.737L471.682 402.751Z" fill="url(#paint24_linear_230_54)" stroke="black" stroke-width="2.6" stroke-linecap="round" stroke-linejoin="round"/>
<path d="M480.854 415.033L483.781 410.419C483.87 410.453 478.828 407.65 477.483 406.904C477.4 406.836 477.305 406.779 477.199 406.744C477.157 406.722 477.145 406.716 477.169 406.727C477.169 406.727 477.169 406.727 477.169 406.733C476.879 406.648 476.517 406.699 476.12 406.915L475.38 407.326C474.42 407.855 473.638 409.166 473.638 410.231C473.638 410.749 473.827 411.119 474.129 411.302H474.141C474.141 411.302 474.153 411.313 474.159 411.319L480.854 415.033Z" fill="black" stroke="black" stroke-width="2.6" stroke-linecap="round" stroke-linejoin="round"/>
<path d="M482.099 411.051C481.139 411.581 480.357 412.891 480.357 413.956C480.357 415.021 481.139 415.454 482.099 414.924L482.839 414.514C483.799 413.985 484.581 412.674 484.581 411.609C484.581 410.544 483.799 410.111 482.839 410.641L482.099 411.051Z" fill="url(#paint25_linear_230_54)" stroke="black" stroke-width="2.6" stroke-linecap="round" stroke-linejoin="round"/>
<path d="M354.161 477.086L361.366 465.727C361.58 465.807 349.172 458.914 345.86 457.079C345.653 456.903 345.421 456.777 345.161 456.692C345.06 456.635 345.024 456.618 345.084 456.646C345.084 456.646 345.084 456.658 345.084 456.664C344.361 456.458 343.478 456.572 342.512 457.114L340.681 458.128C338.323 459.438 336.391 462.651 336.391 465.271C336.391 466.553 336.86 467.459 337.606 467.903L337.63 467.914C337.63 467.914 337.665 467.931 337.677 467.943L354.149 477.086H354.161Z" fill="black" stroke="black" stroke-width="2.6" stroke-linecap="round" stroke-linejoin="round"/>
<path d="M357.225 467.299C354.866 468.609 352.935 471.822 352.935 474.442C352.935 477.063 354.866 478.134 357.225 476.823L359.055 475.809C361.414 474.499 363.345 471.286 363.345 468.666C363.345 466.046 361.414 464.975 359.055 466.285L357.225 467.299Z" fill="url(#paint26_linear_230_54)" stroke="black" stroke-width="2.6" stroke-linecap="round" stroke-linejoin="round"/>
<path d="M366.391 479.581L369.318 474.966C369.407 475.001 364.365 472.198 363.02 471.452C362.937 471.383 362.842 471.326 362.735 471.292C362.694 471.269 362.682 471.264 362.705 471.275C362.705 471.275 362.705 471.275 362.705 471.281C362.415 471.195 362.054 471.246 361.657 471.463L360.916 471.873C359.956 472.403 359.174 473.713 359.174 474.778C359.174 475.297 359.364 475.667 359.666 475.849H359.678C359.678 475.849 359.69 475.861 359.695 475.866L366.391 479.581Z" fill="black" stroke="black" stroke-width="2.6" stroke-linecap="round" stroke-linejoin="round"/>
<path d="M367.635 475.605C366.675 476.135 365.893 477.445 365.893 478.51C365.893 479.575 366.675 480.008 367.635 479.478L368.376 479.068C369.336 478.539 370.118 477.228 370.118 476.163C370.118 475.098 369.336 474.665 368.376 475.195L367.635 475.605Z" fill="url(#paint27_linear_230_54)" stroke="black" stroke-width="2.6" stroke-linecap="round" stroke-linejoin="round"/>
<path d="M418.693 27.7892C414.486 14.4877 400.639 6.29028 386.389 8.67715C368.097 11.7419 345.143 14.8637 320.222 18.3671C276.417 24.5251 226.556 31.8794 185.346 42.2244C181.844 43.1017 127.966 77.1047 127.966 77.1047C127.966 77.1047 142.726 218.05 150.221 218.05L297.404 194.819C297.404 194.819 281.548 142.017 278.988 94.1318L323.036 82.4481L399.495 62.1682C414.699 57.554 423.332 41.4896 418.681 27.7892H418.693Z" fill="#F4A261"/>
<path d="M418.693 27.7892C414.486 14.4877 400.639 6.29028 386.389 8.67715C368.097 11.7419 345.143 14.8637 320.222 18.3671C276.417 24.5251 226.556 31.8794 185.346 42.2244C181.844 43.1017 127.966 77.1047 127.966 77.1047C127.966 77.1047 142.726 218.05 150.221 218.05L297.404 194.819C297.404 194.819 281.548 142.017 278.988 94.1318L323.036 82.4481L399.495 62.1682C414.699 57.554 423.332 41.4896 418.681 27.7892H418.693Z" fill="url(#paint28_linear_230_54)"/>
<path d="M418.693 27.7892C414.486 14.4877 400.639 6.29028 386.389 8.67715C368.097 11.7419 345.143 14.8637 320.222 18.3671C276.417 24.5251 226.556 31.8794 185.346 42.2244C181.844 43.1017 127.966 77.1047 127.966 77.1047C127.966 77.1047 142.726 218.05 150.221 218.05L297.404 194.819C297.404 194.819 281.548 142.017 278.988 94.1318L323.036 82.4481L399.495 62.1682C414.699 57.554 423.332 41.4896 418.681 27.7892H418.693Z" stroke="black" stroke-width="2.6" stroke-linecap="round" stroke-linejoin="round"/>
<path d="M323.907 337.622L382.27 322.326" stroke="black" stroke-width="2.6" stroke-linecap="round" stroke-linejoin="round"/>
<path d="M168.803 331.031L152.544 380.46L226.064 421.265L223.783 364.624L232.09 343.934L168.803 331.031Z" fill="url(#paint29_linear_230_54)" stroke="black" stroke-width="2.6" stroke-linecap="round" stroke-linejoin="round"/>
<path d="M223.783 364.624L158.979 360.904L164.4 344.423L225.418 360.539L223.783 364.624Z" fill="#2A9D8F" stroke="black" stroke-width="2.6" stroke-linecap="round" stroke-linejoin="round"/>
<path d="M381.826 322.964L332.321 346.189L308.875 318.84L367.902 304.194L381.826 322.964Z" fill="#2A9D8F" stroke="black" stroke-width="2.6" stroke-linecap="round" stroke-linejoin="round"/>
<path d="M381.826 322.965L332.321 346.19" stroke="black" stroke-width="2.6" stroke-linecap="round" stroke-linejoin="round"/>
<path d="M295.271 187.197L368.21 295.888L370.799 295.262L377.465 308.916L308.537 333.4L301.042 322.463L241.558 248.031L239.846 235.897L247.839 292.505L239.461 338.539L241.404 339.04L236.415 355.27L159.998 332.352L175.937 309.355L150.233 218.05L295.271 187.197Z" fill="url(#paint30_linear_230_54)" stroke="black" stroke-width="2.6" stroke-miterlimit="10" stroke-linecap="round" stroke-linejoin="round"/>
<path d="M165.141 271L153.19 238.176L238.993 194.876L295.271 187.197L297.415 190.37L238.554 210.508L197.913 280.097L165.141 271Z" fill="black" stroke="black" stroke-width="2.6" stroke-linecap="round" stroke-linejoin="round"/>
<path d="M300.668 183.352L279 94.1317L327.213 88.8681L320.222 18.367C276.417 24.525 226.556 31.8793 185.346 42.2243C181.844 43.1016 127.966 77.1046 127.966 77.1046L143.33 246.02L300.663 183.358L300.668 183.352Z" fill="url(#paint31_linear_230_54)" stroke="black" stroke-width="2.6" stroke-linecap="round" stroke-linejoin="round"/>
<path d="M279 94.1317L273.963 78.8477" stroke="black" stroke-width="2.6" stroke-linecap="round" stroke-linejoin="round"/>
<path d="M418.693 27.7891C419.872 31.264 420.198 34.8871 419.777 38.436C417.976 53.7371 396.793 58.0152 388.273 44.9757" stroke="black" stroke-width="2.6" stroke-linecap="round" stroke-linejoin="round"/>
<path d="M162.066 251.249L153.859 257.527C152.212 258.786 151.993 261.11 153.379 262.631C154.671 264.05 156.893 264.249 158.434 263.087L167.025 256.587L162.066 251.255V251.249Z" fill="url(#paint32_linear_230_54)" stroke="black" stroke-width="2.6" stroke-linecap="round" stroke-linejoin="round"/>
<path d="M152.467 261.207C152.562 261.105 145.848 266.813 147.721 267.855C149.599 268.898 154.612 263.514 154.612 263.514L152.461 261.213L152.467 261.207Z" stroke="black" stroke-width="2.6" stroke-linecap="round" stroke-linejoin="round"/>
<path d="M158.979 360.904L223.783 364.623" stroke="black" stroke-width="2.6" stroke-linecap="round" stroke-linejoin="round"/>
<path d="M166.124 339.177L227.267 355.942L225.418 360.539L164.4 344.423L166.124 339.177Z" fill="#2A9D8F" stroke="black" stroke-width="2.6" stroke-linecap="round" stroke-linejoin="round"/>
<path d="M223.783 372.815L204.982 373.1" stroke="black" stroke-width="2.6" stroke-linecap="round" stroke-linejoin="round"/>
<path d="M209.853 378.54H224.34" stroke="black" stroke-width="2.6" stroke-linecap="round" stroke-linejoin="round"/>
<path d="M215.007 384.305H224.571" stroke="black" stroke-width="2.6" stroke-linecap="round" stroke-linejoin="round"/>
<path d="M154.422 374.752L225.62 410.23" stroke="black" stroke-width="2.6" stroke-linecap="round" stroke-linejoin="round"/>
<path d="M317.443 330.399L373.857 310.478L378.164 316.539L323.907 337.622L317.443 330.399Z" fill="#2A9D8F" stroke="black" stroke-width="2.6" stroke-linecap="round" stroke-linejoin="round"/>
<path d="M239.846 235.897L276.156 218.05" stroke="black" stroke-width="2.6" stroke-linecap="round" stroke-linejoin="round"/>
<path d="M167.618 334.636L164.4 344.423L227.267 355.942L228.327 352.831L167.618 334.636Z" fill="black" stroke="black" stroke-width="2.6" stroke-miterlimit="10" stroke-linecap="round" stroke-linejoin="round"/>
<path d="M373.857 310.478L323.907 337.622L317.443 330.399L373.857 310.478Z" fill="black" stroke="black" stroke-width="2.6" stroke-miterlimit="10" stroke-linecap="round" stroke-linejoin="round"/>
<path d="M368.66 295.632L301.492 322.206" stroke="black" stroke-width="2.6" stroke-miterlimit="10" stroke-linecap="round" stroke-linejoin="round"/>
<path d="M239.461 338.538L168.803 320.047" stroke="black" stroke-width="2.6" stroke-miterlimit="10" stroke-linecap="round" stroke-linejoin="round"/>
<path d="M389.393 46.9239C389.393 46.9239 395.105 58.0778 403.85 60.14C410.101 57.0525 416.524 48.8152 417.597 45.8928C408.673 53.9592 395.282 55.1612 389.393 46.9239Z" fill="black" stroke="black" stroke-width="2.6" stroke-linecap="round" stroke-linejoin="round"/>
<path d="M276.156 85.0286L327.213 88.8624L279.012 93.7216L276.156 85.0286Z" fill="black" stroke="black" stroke-width="2.6" stroke-linecap="round" stroke-linejoin="round"/>
<path d="M258.001 226.971L263.156 275.056L241.558 248.031L239.846 235.897L258.001 226.971Z" fill="black" stroke="black" stroke-width="2.6" stroke-miterlimit="10" stroke-linecap="round" stroke-linejoin="round"/>
<path d="M414.794 196.79L528.232 133.826L618.71 231.249L547.791 270.618L414.794 196.79Z" fill="url(#paint33_linear_230_54)" stroke="black" stroke-width="2.6" stroke-linecap="round" stroke-linejoin="round"/>
<path d="M414.794 91.6707L485.713 52.3072L618.71 126.129L547.791 165.493L414.794 91.6707Z" fill="url(#paint34_linear_230_54)" stroke="black" stroke-width="2.6" stroke-miterlimit="10" stroke-linecap="round" stroke-linejoin="round"/>
<path d="M425.696 85.6207L558.694 159.443" stroke="black" stroke-width="2.6" stroke-linecap="round" stroke-linejoin="round"/>
<path d="M414.794 91.6709V184.434V196.79L547.791 270.618V165.493L414.794 91.6709Z" fill="black" stroke="black" stroke-width="2.6" stroke-linecap="round" stroke-linejoin="round"/>
<path d="M420.66 102.904V192.068L540.166 258.399V169.241L420.66 102.904Z" fill="#2A9D8F" stroke="black" stroke-width="2.6" stroke-linecap="round" stroke-linejoin="round"/>
<path d="M435.052 138.885C445.659 142.251 460.513 139.545 457.26 134.789C454.007 130.032 448.9 135.957 440.012 135.569C434.952 135.347 430.111 133.256 432.321 128.955C434.537 124.654 451.708 131.969 453.249 126.187C454.789 120.405 440.184 126.153 439.206 123.635C438.228 121.117 441.961 120.456 444.805 120.171C447.122 119.943 449.415 119.966 451.584 120.074L444.367 116.07C438.252 117.124 432.493 119.453 429.915 123.669C426.23 129.69 424.037 131.337 421.537 132.356V138.531C425.329 137.506 430.223 137.358 435.047 138.885H435.052Z" fill="black" stroke="black" stroke-width="2.6" stroke-linecap="round" stroke-linejoin="round"/>
<path d="M460.264 133.877C465.739 138.742 458.214 139.978 463.517 146.102C468.82 152.231 476.861 148.187 472.926 143.709C468.992 139.232 465.567 138.286 468.139 134.646C469.49 132.726 472.512 133.25 475.362 133.262L462.996 126.397C457.936 124.825 455.026 129.217 460.27 133.871L460.264 133.877Z" fill="black" stroke="black" stroke-width="2.6" stroke-linecap="round" stroke-linejoin="round"/>
<path d="M434.543 113.762C435.953 113.478 437.719 113.409 439.573 113.404L432.469 109.461C428.499 108.362 425.128 105.195 421.543 104.488V109.661C422.088 109.536 422.639 109.553 423.16 109.729C429.868 112.019 422.112 113.341 421.543 115.961V116.559C421.59 116.793 421.697 117.038 421.88 117.294C424.446 120.855 429.406 114.811 434.543 113.762Z" fill="black" stroke="black" stroke-width="2.6" stroke-linecap="round" stroke-linejoin="round"/>
<path d="M425.305 123.236C424.523 122.347 423.048 121.965 421.543 121.567V127.867C423.889 127.075 427.201 125.383 425.305 123.236Z" fill="black" stroke="black" stroke-width="2.6" stroke-linecap="round" stroke-linejoin="round"/>
<path d="M432.676 159.324C430.537 156.897 423.249 158.213 424.174 152.801C425.068 147.56 428.072 144.98 430.537 145.817C438.293 148.466 426.692 149.822 429.257 153.382C431.823 156.943 436.782 150.898 441.92 149.85C447.448 148.722 458.516 151.024 458.516 146.882C458.516 142.741 452.869 142.735 445.682 145.35C438.495 147.97 433.618 140.89 428.061 140.457C425.507 140.257 423.208 140.929 421.549 142.262V166.866C423.255 165.863 425.382 164.963 428.078 164.211C430.336 163.585 434.821 161.745 432.682 159.324H432.676Z" fill="black" stroke="black" stroke-width="2.6" stroke-linecap="round" stroke-linejoin="round"/>
<path d="M487.686 143.379C488.498 142.746 489.15 142.023 489.718 141.237L478.425 134.97C476.861 135.449 475.776 136.047 475.374 137.215C474.147 140.741 481.346 148.34 487.692 143.379H487.686Z" fill="black" stroke="black" stroke-width="2.6" stroke-linecap="round" stroke-linejoin="round"/>
<path d="M423.492 181.535C422.295 177.245 433.245 172.489 443.851 175.856C454.458 179.222 469.312 176.516 466.059 171.76C462.806 167.003 457.699 172.927 448.811 172.54C443.751 172.318 438.91 170.227 441.12 165.926C443.336 161.625 460.507 168.94 462.048 163.158C463.588 157.376 448.983 163.124 448.005 160.606C447.027 158.088 450.76 157.427 453.598 157.142C463.179 156.197 472.417 159.54 473.614 155.536C474.811 151.537 445.558 149.452 438.714 160.634C431.871 171.817 430.158 167.92 422.118 172.91C421.91 173.036 421.721 173.167 421.537 173.292V185.95C423.38 184.97 424.138 183.865 423.486 181.535H423.492Z" fill="black" stroke="black" stroke-width="2.6" stroke-linecap="round" stroke-linejoin="round"/>
<path d="M484.178 156.999C487.941 160.565 478.532 164.997 473.057 162.781C467.582 160.565 464.163 165.146 469.638 170.01C475.113 174.875 467.588 176.111 472.891 182.235C478.194 188.365 486.234 184.32 482.3 179.843C478.366 175.365 474.941 174.42 477.512 170.779C480.078 167.139 488.634 172.272 490.684 166.091C492.734 159.905 484.694 153.126 491.372 150.921C495.875 149.434 498.814 148.586 499.886 146.871L494.654 143.966C494.299 145.048 493.321 145.965 490.69 146.66C482.306 148.882 480.428 153.422 484.19 156.994L484.178 156.999Z" fill="black" stroke="black" stroke-width="2.6" stroke-linecap="round" stroke-linejoin="round"/>
<path d="M473.074 207.391C469.822 202.635 464.714 208.559 455.826 208.172C450.766 207.95 445.925 205.859 448.135 201.558C450.345 197.257 467.523 204.572 469.063 198.79C470.604 193.007 455.998 198.755 455.02 196.237C454.043 193.72 457.776 193.059 460.614 192.774C470.195 191.828 479.432 195.172 480.629 191.167C481.826 187.168 452.573 185.084 445.73 196.266C443.591 199.758 441.955 201.78 440.474 203.062L458.125 212.86C467.054 213.584 475.616 211.117 473.069 207.391H473.074Z" fill="black" stroke="black" stroke-width="2.6" stroke-linecap="round" stroke-linejoin="round"/>
<path d="M533.417 171.868C528.357 171.645 523.516 169.555 525.726 165.254C526.342 164.052 528.132 163.761 530.413 163.83L523.356 159.91C523.356 159.91 523.332 159.945 523.32 159.962C516.477 171.144 514.764 167.248 506.724 172.238C498.683 177.228 507.068 181.671 498.683 183.893C490.299 186.115 488.421 190.655 492.183 194.227C495.946 197.793 486.537 202.225 481.062 200.009C475.587 197.793 472.168 202.373 477.643 207.238C483.118 212.103 475.593 213.339 480.896 219.463C486.199 225.592 494.239 221.548 490.305 217.07C486.371 212.593 482.946 211.647 485.518 208.007C488.083 204.367 496.639 209.499 498.689 203.319C500.745 197.132 492.699 190.353 499.377 188.149C506.048 185.944 509.301 185.152 508.104 180.863C506.908 176.573 517.857 171.816 528.463 175.183C532.457 176.448 537.049 176.858 541.055 176.619V170.802C538.874 171.44 536.356 171.999 533.423 171.868H533.417Z" fill="black" stroke="black" stroke-width="2.6" stroke-linecap="round" stroke-linejoin="round"/>
<path d="M441.114 195.839C438.975 193.412 431.687 194.728 432.611 189.316C433.506 184.075 436.51 181.495 438.969 182.332C446.725 184.981 435.123 186.337 437.689 189.897C440.255 193.458 445.214 187.414 450.351 186.366C455.88 185.238 466.948 187.539 466.948 183.398C466.948 179.256 461.301 179.25 454.114 181.865C446.927 184.486 442.05 177.405 436.492 176.972C430.934 176.539 426.538 180.196 427.427 185.95C428.292 191.555 426.461 193.116 423.326 193.549L436.35 200.778C436.403 200.761 436.451 200.744 436.51 200.732C438.767 200.106 443.253 198.266 441.114 195.845V195.839Z" fill="black" stroke="black" stroke-width="2.6" stroke-linecap="round" stroke-linejoin="round"/>
<path d="M496.325 156.903C491.366 156.903 491.538 162.047 499.744 162.246C507.956 162.451 500.034 167.766 494.097 169.948C488.545 171.987 484.232 171.72 483.319 174.346C482.093 177.872 489.292 185.471 495.638 180.509C501.148 176.203 499.282 167.891 513.621 163.915C515.878 163.289 520.364 161.449 518.225 159.028C516.086 156.601 508.798 157.917 509.722 152.505C509.728 152.454 509.74 152.408 509.752 152.357L504.585 149.491C505.604 156.897 501.682 156.903 496.325 156.903Z" fill="black" stroke="black" stroke-width="2.6" stroke-linecap="round" stroke-linejoin="round"/>
<path d="M465.224 216.802L473.205 221.234C473.904 220.841 474.319 220.289 474.319 219.491C474.319 216.102 470.539 215.486 465.224 216.808V216.802Z" fill="black" stroke="black" stroke-width="2.6" stroke-linecap="round" stroke-linejoin="round"/>
<path d="M523.03 177.894C517.472 177.461 513.076 181.119 513.964 186.872C515.161 194.637 511.197 194.637 505.752 194.637C500.793 194.637 500.964 199.781 509.171 199.98C517.383 200.185 509.461 205.5 503.524 207.682C497.972 209.721 493.659 209.454 492.746 212.08C491.52 215.606 498.719 223.205 505.065 218.243C510.575 213.937 508.709 205.625 523.048 201.649C525.305 201.023 529.791 199.183 527.652 196.762C525.513 194.335 518.225 195.651 519.149 190.239C520.044 184.998 523.048 182.417 525.507 183.255C533.263 185.904 521.661 187.26 524.227 190.82C526.792 194.38 531.752 188.336 536.889 187.288C538.074 187.043 539.52 186.963 541.049 186.941V182.651C540.918 182.697 540.788 182.742 540.652 182.788C533.464 185.408 528.588 178.327 523.03 177.894Z" fill="black" stroke="black" stroke-width="2.6" stroke-linecap="round" stroke-linejoin="round"/>
<path d="M532.362 197.816C525.518 208.998 523.806 205.102 515.766 210.092C507.725 215.082 516.109 219.525 507.725 221.747C499.341 223.969 497.463 228.509 501.225 232.081C502.754 233.528 502.108 235.123 500.437 236.353L508.383 240.762C508.596 240.42 508.78 240.039 508.928 239.606C510.978 233.419 499.685 229.927 508.412 226.014C514.806 223.143 518.337 223.017 517.14 218.728C515.943 214.438 526.893 209.682 537.499 213.048C538.643 213.413 539.84 213.698 541.054 213.926V209.619C536.557 209.101 532.765 207.016 534.774 203.113C535.532 201.644 538.033 201.53 541.054 201.786V191.686C537.292 193.002 534.104 194.984 532.368 197.827L532.362 197.816Z" fill="black" stroke="black" stroke-width="2.6" stroke-linecap="round" stroke-linejoin="round"/>
<path d="M522.775 245.73C521.809 246.328 521.081 246.926 520.529 247.507L526.052 250.572C529.003 248.344 534.845 246.858 541.043 247.86V231.374C540.397 232.012 539.828 232.702 539.366 233.453C532.522 244.636 530.81 240.739 522.769 245.73H522.775Z" fill="black" stroke="black" stroke-width="2.6" stroke-linecap="round" stroke-linejoin="round"/>
<path d="M521.069 223.131C522.266 230.896 518.302 230.896 512.856 230.896C507.897 230.896 508.069 236.04 516.275 236.239C523.587 236.421 518.112 240.654 512.631 243.121L517.881 246.037C519.896 242.944 523.018 239.891 530.146 237.914C532.404 237.287 536.889 235.447 534.75 233.026C532.611 230.599 525.323 231.915 526.247 226.504C527.142 221.263 530.146 218.682 532.605 219.52C540.361 222.168 528.76 223.524 531.325 227.085C533.393 229.956 537.019 226.583 541.037 224.618V218.978C537.132 217.588 533.772 214.444 530.122 214.159C524.565 213.726 520.168 217.383 521.057 223.137L521.069 223.131Z" fill="black" stroke="black" stroke-width="2.6" stroke-linecap="round" stroke-linejoin="round"/>
<path d="M530.152 252.845L536.635 256.439C537.707 255.539 538.898 255.237 539.988 255.608C540.397 255.744 540.741 255.881 541.049 256.018V251.295C539.882 250.748 538.714 250.344 537.511 250.247C534.496 250.014 531.829 250.988 530.158 252.845H530.152Z" fill="black" stroke="black" stroke-width="2.6" stroke-linecap="round" stroke-linejoin="round"/>
<path d="M547.792 270.618L618.711 231.249V126.129L547.792 165.493V270.618Z" fill="url(#paint35_linear_230_54)" stroke="black" stroke-width="2.6" stroke-miterlimit="10" stroke-linecap="round" stroke-linejoin="round"/>
<path d="M427.213 107.388L420.66 102.904V192.068L427.409 189.259L427.213 107.388Z" fill="url(#paint36_linear_230_54)" stroke="black" stroke-width="2.6" stroke-linecap="round" stroke-linejoin="round"/>
<path d="M427.409 189.259L540.166 249.256V258.399L420.66 192.068L427.409 189.259Z" fill="url(#paint37_linear_230_54)" stroke="black" stroke-width="2.6" stroke-linecap="round" stroke-linejoin="round"/>
<path d="M239.461 31.7654L241.932 91.6367C242.02 93.7729 241.57 95.8692 240.622 97.7434C239.591 99.7828 239.87 102.272 241.345 104.192C242.88 106.186 243.176 108.755 242.127 110.88C240.065 115.067 237.535 121.869 242.08 123.116C246.749 124.398 248.301 116.907 248.817 112.321C249.054 110.168 250.446 108.356 252.479 107.485L255.121 106.351C257.539 105.314 258.937 102.899 258.617 100.301L258.427 98.7517C258.285 97.6124 258.297 96.4674 258.463 95.3509L261.621 30.5179L239.461 31.7597V31.7654Z" fill="black" stroke="black" stroke-width="2.6" stroke-linecap="round" stroke-linejoin="round"/>
<path d="M234.733 29.5606L245.084 88.8451C245.451 90.9586 245.279 93.0378 244.574 94.8949C243.81 96.9115 244.42 99.3782 246.15 101.281C247.946 103.252 248.586 105.798 247.815 107.906C246.305 112.047 244.669 118.786 249.38 120.023C254.221 121.293 254.783 113.876 254.695 109.336C254.653 107.205 255.803 105.405 257.716 104.545L260.211 103.423C262.492 102.397 263.571 100.005 262.913 97.4356L262.516 95.9032C262.226 94.7753 262.089 93.6417 262.107 92.5365L263.156 26.1484L234.733 29.5663V29.5606Z" fill="#2A9D8F" stroke="black" stroke-width="2.6" stroke-linecap="round" stroke-linejoin="round"/>
<path d="M244.201 83.7867L245.049 88.6459" stroke="black" stroke-width="2.6" stroke-linecap="round" stroke-linejoin="round"/>
<path d="M244.296 96.1655C244.343 95.7325 244.426 95.2996 244.58 94.8951C245.285 93.038 245.457 90.9645 245.09 88.8454L245.054 88.646" stroke="black" stroke-width="2.6" stroke-linecap="round" stroke-linejoin="round"/>
<path d="M237.891 47.6476L238.785 52.7859" stroke="black" stroke-width="2.6" stroke-linecap="round" stroke-linejoin="round"/>
<path d="M262.682 96.53L262.522 95.9034C262.231 94.7755 262.095 93.6418 262.113 92.5367L262.143 90.7992" stroke="black" stroke-width="2.6" stroke-linecap="round" stroke-linejoin="round"/>
<path d="M263.025 34.4656L263.097 30.0394" stroke="black" stroke-width="2.6" stroke-linecap="round" stroke-linejoin="round"/>
<path d="M241.025 65.5859L239.81 58.6588" stroke="black" stroke-width="2.6" stroke-linecap="round" stroke-linejoin="round"/>
<path d="M238.785 52.7857L239.81 58.6589" stroke="black" stroke-width="2.6" stroke-linecap="round" stroke-linejoin="round"/>
<path d="M236.771 41.2505L237.891 47.6477" stroke="black" stroke-width="2.6" stroke-linecap="round" stroke-linejoin="round"/>
<path d="M262.243 83.9576L262.137 90.7935" stroke="black" stroke-width="2.6" stroke-linecap="round" stroke-linejoin="round"/>
<path d="M254.588 113.039C254.701 111.746 254.718 110.452 254.695 109.336C254.653 107.205 255.803 105.405 257.716 104.545L260.211 103.423C262.492 102.397 263.571 100.005 262.913 97.4357L262.682 96.5299" stroke="black" stroke-width="2.6" stroke-linecap="round" stroke-linejoin="round"/>
<path d="M254.588 113.039C254.25 117.004 253.03 120.98 249.38 120.023C247.679 119.579 246.808 118.416 246.459 116.924" stroke="black" stroke-width="2.6" stroke-linecap="round" stroke-linejoin="round"/>
<path d="M244.296 96.1656C244.118 97.886 244.77 99.7601 246.15 101.281C246.725 101.913 247.17 102.614 247.501 103.332" stroke="black" stroke-width="2.6" stroke-linecap="round" stroke-linejoin="round"/>
<path d="M246.719 111.569C247.015 110.265 247.424 108.994 247.821 107.906C248.343 106.476 248.2 104.853 247.507 103.332" stroke="black" stroke-width="2.6" stroke-linecap="round" stroke-linejoin="round"/>
<path d="M246.719 111.569C246.293 113.432 246.097 115.357 246.465 116.924" stroke="black" stroke-width="2.6" stroke-linecap="round" stroke-linejoin="round"/>
<path d="M262.243 83.958L262.427 72.5192" stroke="black" stroke-width="2.6" stroke-linecap="round" stroke-linejoin="round"/>
<path d="M244.201 83.7867L243.093 77.4236" stroke="black" stroke-width="2.6" stroke-linecap="round" stroke-linejoin="round"/>
<path d="M262.51 67.0277L262.552 64.299" stroke="black" stroke-width="2.6" stroke-linecap="round" stroke-linejoin="round"/>
<path d="M262.741 52.3418L262.551 64.2989" stroke="black" stroke-width="2.6" stroke-linecap="round" stroke-linejoin="round"/>
<path d="M262.427 72.5187L262.51 67.0272" stroke="black" stroke-width="2.6" stroke-linecap="round" stroke-linejoin="round"/>
<path d="M262.889 42.9704L263.025 34.4654" stroke="black" stroke-width="2.6" stroke-linecap="round" stroke-linejoin="round"/>
<path d="M262.889 42.9709L262.741 52.3419" stroke="black" stroke-width="2.6" stroke-linecap="round" stroke-linejoin="round"/>
<path d="M242.305 72.935L241.025 65.5864" stroke="black" stroke-width="2.6" stroke-linecap="round" stroke-linejoin="round"/>
<path d="M237.772 29.1964L234.733 29.561L235.971 36.6589" stroke="black" stroke-width="2.6" stroke-linecap="round" stroke-linejoin="round"/>
<path d="M236.771 41.2505L235.971 36.6591" stroke="black" stroke-width="2.6" stroke-linecap="round" stroke-linejoin="round"/>
<path d="M243.093 77.4237L242.305 72.9348" stroke="black" stroke-width="2.6" stroke-linecap="round" stroke-linejoin="round"/>
<path d="M237.772 29.1961L263.156 26.1484L263.097 30.0392" stroke="black" stroke-width="2.6" stroke-linecap="round" stroke-linejoin="round"/>
<path d="M236.771 41.2502C240.806 39.6494 242.82 38.8576 241.872 35.4681C240.675 31.1786 251.625 26.4219 262.231 29.7886C262.516 29.8798 262.8 29.9595 263.091 30.045" stroke="black" stroke-width="2.6" stroke-linecap="round" stroke-linejoin="round"/>
<path d="M235.971 36.6591C237.488 34.7336 235.556 32.1189 237.772 29.2022" stroke="black" stroke-width="2.6" stroke-linecap="round" stroke-linejoin="round"/>
<path d="M242.305 72.935C245.647 70.5082 240.735 66.6915 247.519 62.476C254.991 57.8333 257 60.8696 262.741 52.3418" stroke="black" stroke-width="2.6" stroke-linecap="round" stroke-linejoin="round"/>
<path d="M243.093 77.4234C247.756 75.8455 249.901 74.7062 248.894 71.1002C247.952 67.7221 254.535 64.0592 262.557 64.2928" stroke="black" stroke-width="2.6" stroke-linecap="round" stroke-linejoin="round"/>
<path d="M241.025 65.586C243.123 61.6383 245.611 57.2405 254.902 54.66C257.16 54.0333 261.645 52.1933 259.506 49.7723C257.367 47.3455 250.079 48.6614 251.003 43.2497C251.898 38.0088 254.902 35.4282 257.361 36.2656C265.117 38.9146 253.516 40.2704 256.081 43.8307C257.634 45.9897 260.075 44.6169 262.895 42.9649" stroke="black" stroke-width="2.6" stroke-linecap="round" stroke-linejoin="round"/>
<path d="M237.891 47.6478C243.188 47.6478 246.992 47.511 245.813 39.8833C244.924 34.1297 249.32 30.4725 254.878 30.9055C257.639 31.1219 260.235 32.9733 263.025 34.4658" stroke="black" stroke-width="2.6" stroke-linecap="round" stroke-linejoin="round"/>
<path d="M239.81 58.6591C244.213 56.2266 247.229 53.1505 241.019 52.9966C240.19 52.9739 239.449 52.9055 238.785 52.7916" stroke="black" stroke-width="2.6" stroke-linecap="round" stroke-linejoin="round"/>
<path d="M244.201 83.7868C244.444 83.7584 244.699 83.7413 244.971 83.7413C250.417 83.7413 254.381 83.7413 253.184 75.9768C252.295 70.2232 256.692 66.566 262.249 66.999C262.338 67.0047 262.421 67.016 262.51 67.0274" stroke="black" stroke-width="2.6" stroke-linecap="round" stroke-linejoin="round"/>
<path d="M244.296 96.1655C249.919 93.7387 255.915 89.2669 248.396 89.0846C247.075 89.0504 245.967 88.8909 245.048 88.646" stroke="black" stroke-width="2.6" stroke-linecap="round" stroke-linejoin="round"/>
<path d="M262.427 72.5192C260.649 73.3281 259.002 75.6865 258.374 79.338C257.853 82.3914 259.938 83.3029 262.249 83.9523" stroke="black" stroke-width="2.6" stroke-linecap="round" stroke-linejoin="round"/>
<path d="M247.501 103.332C249.913 99.0364 251.643 93.7499 262.137 90.7934" stroke="black" stroke-width="2.6" stroke-linecap="round" stroke-linejoin="round"/>
<path d="M262.682 96.5299C260.981 97.1053 259.002 97.7832 256.318 99.4466C248.277 104.437 256.662 108.88 248.277 111.102C247.726 111.25 247.211 111.404 246.719 111.569" stroke="black" stroke-width="2.6" stroke-linecap="round" stroke-linejoin="round"/>
<path d="M254.588 113.039C253.124 113.677 251.228 114.349 248.959 115.363C247.792 115.887 246.992 116.406 246.459 116.924" stroke="black" stroke-width="2.6" stroke-linecap="round" stroke-linejoin="round"/>
<path d="M213.911 154.06C209.515 155.04 115.766 182.07 115.766 182.07L114.634 191.885C114.634 191.885 202.772 265.423 202.778 264.921C202.79 263.924 249.794 194.534 249.794 194.534L313.194 180.6L311.743 170.306L263.156 172.887L256.697 157.58L245.161 119.191L213.911 154.06Z" fill="url(#paint38_linear_230_54)" stroke="black" stroke-width="2.6" stroke-miterlimit="10" stroke-linecap="round" stroke-linejoin="round"/>
<path d="M217.508 159.17C213.111 160.15 114.634 191.88 114.634 191.88C114.634 191.88 132.487 216.295 153.196 238.17C173.904 260.051 201.64 275.227 201.646 274.731C201.658 273.734 248.663 204.344 248.663 204.344L313.194 180.595L312.051 175.024L259.761 178.123L260.258 164.781L249.06 123.281L217.514 159.164L217.508 159.17Z" fill="url(#paint39_linear_230_54)" stroke="black" stroke-width="2.6" stroke-miterlimit="10" stroke-linecap="round" stroke-linejoin="round"/>
<path d="M176.197 258.428C183.948 251.922 186.495 241.019 184.422 228.703C180.831 234.416 174.55 239.726 167.114 242.392C163.375 243.73 158.736 243.73 158.736 243.73C161.639 248.396 176.203 258.433 176.203 258.433L176.197 258.428Z" fill="black" stroke="black" stroke-width="2.6" stroke-linecap="round" stroke-linejoin="round"/>
<path d="M153.19 238.176C173.898 260.057 201.634 275.232 201.64 274.737L153.19 238.176Z" fill="url(#paint40_linear_230_54)"/>
<path d="M153.19 238.176C173.898 260.057 201.634 275.232 201.64 274.737" stroke="black" stroke-width="2.6" stroke-miterlimit="10" stroke-linecap="round" stroke-linejoin="round"/>
<path d="M201.065 189.014L220.115 213.156L214.551 219.93L190.744 191.692L201.065 189.014Z" fill="url(#paint41_linear_230_54)" stroke="black" stroke-width="2.6" stroke-miterlimit="10" stroke-linecap="round" stroke-linejoin="round"/>
<path d="M364.566 99.9764C360.43 101.486 255.257 184.753 255.115 183.876C254.973 182.993 251.228 159.5 251.228 159.5L361.894 83.2398L364.566 99.9764Z" fill="url(#paint42_linear_230_54)" stroke="black" stroke-width="2.6" stroke-miterlimit="10" stroke-linecap="round" stroke-linejoin="round"/>
<path d="M361.894 83.2398L389.227 52.3472L391.632 49.6299L392.995 52.3358V58.4824L380.789 97.7035L364.566 99.9764L361.894 83.2398Z" fill="black" stroke="black" stroke-width="2.6" stroke-miterlimit="10" stroke-linecap="round" stroke-linejoin="round"/>
<path d="M213.947 190.279L224.837 205.739L233.411 199.205L222.521 183.745L213.947 190.279Z" fill="url(#paint43_linear_230_54)" stroke="black" stroke-width="2.6" stroke-miterlimit="10" stroke-linecap="round" stroke-linejoin="round"/>
<path d="M228.108 179.421L238.993 194.876L247.566 188.342L236.682 172.887L228.108 179.421Z" fill="url(#paint44_linear_230_54)" stroke="black" stroke-width="2.6" stroke-miterlimit="10" stroke-linecap="round" stroke-linejoin="round"/>
<path d="M363.428 97.7948L215.298 210.325" stroke="black" stroke-width="2.6" stroke-linecap="round" stroke-linejoin="round"/>
<path d="M212.223 206.566L363.079 93.944" stroke="black" stroke-width="2.6" stroke-linecap="round" stroke-linejoin="round"/>
<path d="M209.627 202.692L361.947 90.6739" stroke="black" stroke-width="2.6" stroke-linecap="round" stroke-linejoin="round"/>
<path d="M206.226 199.422L211.245 195.776L247.11 169.726L361.947 86.3104" fill="url(#paint45_linear_230_54)"/>
<path d="M206.226 199.422L211.245 195.776L247.11 169.726L361.947 86.3104" stroke="black" stroke-width="2.6" stroke-linecap="round" stroke-linejoin="round"/>
<path d="M249.054 123.287L245.161 119.191L213.911 154.06L217.508 159.17L249.054 123.287Z" fill="url(#paint46_linear_230_54)" stroke="black" stroke-width="2.6" stroke-miterlimit="10" stroke-linecap="round" stroke-linejoin="round"/>
<path d="M371.303 95.0432L378.259 94.4508L390.465 58.2033L371.303 95.0432Z" fill="url(#paint47_linear_230_54)" stroke="black" stroke-width="2.6" stroke-miterlimit="10" stroke-linecap="round" stroke-linejoin="round"/>
<path d="M136.771 175.075L114.634 191.886L142.643 182.8L136.771 175.075Z" fill="black" stroke="black" stroke-width="2.6" stroke-linecap="round" stroke-linejoin="round"/>
<path d="M269.709 172.887L263.517 177.65L312.051 175.029L311.743 170.307L269.709 172.887Z" fill="black" stroke="black" stroke-width="2.6" stroke-linecap="round" stroke-linejoin="round"/>
<path d="M197.913 35.5082C197.913 35.5082 178.295 41.2105 150.997 65.6888C137.458 77.8283 102.505 90.8906 90.0387 108.277C80.5228 121.55 76.0196 135.558 79.9243 150.87C81.5893 157.41 84.789 164.183 89.7839 171.235C106.481 194.814 131.936 230.776 131.936 230.776C141.873 244.813 162.024 247.957 176.067 237.663C189.458 227.848 192.166 209.517 182.152 196.506L144.509 147.595L161.9 116.582" fill="#F4A261"/>
<path d="M197.913 35.5082C197.913 35.5082 178.295 41.2105 150.997 65.6888C137.458 77.8283 102.505 90.8906 90.0387 108.277C80.5228 121.55 76.0196 135.558 79.9243 150.87C81.5893 157.41 84.789 164.183 89.7839 171.235C106.481 194.814 131.936 230.776 131.936 230.776C141.873 244.813 162.024 247.957 176.067 237.663C189.458 227.848 192.166 209.517 182.152 196.506L144.509 147.595L161.9 116.582" fill="url(#paint48_linear_230_54)"/>
<path d="M197.913 35.5082C197.913 35.5082 178.295 41.2105 150.997 65.6888C137.458 77.8283 102.505 90.8906 90.0387 108.277C80.5228 121.55 76.0196 135.558 79.9243 150.87C81.5893 157.41 84.789 164.183 89.7839 171.235C106.481 194.814 131.936 230.776 131.936 230.776C141.873 244.813 162.024 247.957 176.067 237.663C189.458 227.848 192.166 209.517 182.152 196.506L144.509 147.595L161.9 116.582" stroke="black" stroke-width="2.6" stroke-linecap="round" stroke-linejoin="round"/>
<path d="M144.521 147.594L84.4808 162.582L79.9302 150.87L144.521 147.594Z" fill="black" stroke="black" stroke-width="2.6" stroke-miterlimit="10" stroke-linecap="round" stroke-linejoin="round"/>
<path d="M197.913 35.5082C197.913 35.5082 97.1548 40.2535 66.2133 155.086L144.515 147.589L161.906 116.577" fill="url(#paint49_linear_230_54)"/>
<path d="M197.913 35.5082C197.913 35.5082 97.1548 40.2535 66.2133 155.086L144.515 147.589L161.906 116.577" stroke="black" stroke-width="2.6" stroke-linecap="round" stroke-linejoin="round"/>
<path d="M178.295 235.869C178.715 235.493 179.13 235.111 179.527 234.718C188.374 225.963 187.568 213.521 180.837 205.244" stroke="black" stroke-width="2.6" stroke-linecap="round" stroke-linejoin="round"/>
<path d="M192.61 35.3658C192.61 35.3658 183.562 72.895 202.132 83.8781C217.395 92.9072 230.935 78.8423 233.79 59.622C226.888 59.8498 192.61 35.3658 192.61 35.3658Z" fill="black" stroke="black" stroke-width="2.6" stroke-miterlimit="10" stroke-linecap="round" stroke-linejoin="round"/>
<path d="M231.548 60.7225C243.299 55.0598 246.936 39.1713 239.671 25.2346C232.406 11.298 216.989 4.59065 205.237 10.2534C193.485 15.9162 189.848 31.8046 197.114 45.7413C204.379 59.6779 219.796 66.3853 231.548 60.7225Z" fill="#F4A261"/>
<path d="M231.548 60.7225C243.299 55.0598 246.936 39.1713 239.671 25.2346C232.406 11.298 216.989 4.59065 205.237 10.2534C193.485 15.9162 189.848 31.8046 197.114 45.7413C204.379 59.6779 219.796 66.3853 231.548 60.7225Z" fill="url(#paint50_linear_230_54)"/>
<path d="M231.548 60.7225C243.299 55.0598 246.936 39.1713 239.671 25.2346C232.406 11.298 216.989 4.59065 205.237 10.2534C193.485 15.9162 189.848 31.8046 197.114 45.7413C204.379 59.6779 219.796 66.3853 231.548 60.7225Z" stroke="black" stroke-width="2.6" stroke-linecap="round" stroke-linejoin="round"/>
<path d="M246.761 35.9413L238.904 41.7746L233.192 56.5345L223.789 56.1927" stroke="black" stroke-width="2.6" stroke-linecap="round" stroke-linejoin="round"/>
<path d="M228.547 47.0377L213.313 49.7835" stroke="black" stroke-width="2.6" stroke-linecap="round" stroke-linejoin="round"/>
<path d="M103.827 139.619L144.521 147.594L124.174 135.221" stroke="black" stroke-width="2.6" stroke-linecap="round" stroke-linejoin="round"/>
<path d="M332.321 346.189L338.377 357.714L419.327 377.162L382.271 322.326L354.179 335.747L332.321 346.189Z" fill="url(#paint51_linear_230_54)" stroke="black" stroke-width="2.6" stroke-linecap="round" stroke-linejoin="round"/>
<path d="M323.907 337.622L332.321 346.189L382.27 322.326L378.164 316.538" stroke="black" stroke-width="2.6" stroke-linecap="round" stroke-linejoin="round"/>
<path d="M400.876 349.858L388.824 332.022L368.66 344.423" fill="url(#paint52_linear_230_54)"/>
<path d="M400.876 349.858L388.824 332.022L368.66 344.423" stroke="black" stroke-width="2.6" stroke-linecap="round" stroke-linejoin="round"/>
<path d="M392.829 336.129L375.824 346.189" stroke="black" stroke-width="2.6" stroke-linecap="round" stroke-linejoin="round"/>
<path d="M388.824 347.824L396.841 343.882" stroke="black" stroke-width="2.6" stroke-linecap="round" stroke-linejoin="round"/>
<path opacity="0.3" d="M304.917 386.35L202.763 445.606L244.027 452.039L354.878 392.685L356.922 392.15L369.324 388.948L403.11 398.53L416.975 393.619L384.984 379.042L370.124 384.22L358.137 390.002L304.917 386.35Z" fill="url(#paint53_linear_230_54)"/>
<path d="M213.911 154.06L156.057 162.582L162.006 168.86L213.911 154.06Z" fill="black" stroke="black" stroke-width="2.6" stroke-linecap="round" stroke-linejoin="round"/>
<path d="M428.286 123.258L540.468 184.867L541.049 169.731L427.213 107.388L428.286 123.258Z" fill="#2A9D8F" stroke="black" stroke-width="2.6" stroke-linecap="round" stroke-linejoin="round"/>
<path d="M418.118 121.35L422.444 132.077L438.039 123.378L432.487 113.398L418.118 121.35Z" fill="black" stroke="black" stroke-width="2.6" stroke-linecap="round" stroke-linejoin="round"/>
<path d="M424.073 129.126C423.913 131.849 421.887 133.085 419.546 131.894C417.206 130.704 415.434 127.531 415.588 124.813C415.748 122.09 417.775 120.854 420.115 122.045C422.455 123.235 424.227 126.408 424.073 129.126Z" fill="url(#paint54_linear_230_54)" stroke="black" stroke-width="2.6" stroke-linecap="round" stroke-linejoin="round"/>
<path d="M439.188 120.735C439.028 123.458 437.002 124.694 434.661 123.503C432.321 122.313 430.549 119.14 430.703 116.423C430.863 113.7 432.89 112.463 435.23 113.654C437.571 114.845 439.342 118.018 439.188 120.735Z" fill="black" stroke="black" stroke-width="2.6" stroke-linecap="round" stroke-linejoin="round"/>
<path d="M413.544 126.808L415.706 132.168L419.487 130.049L416.714 125.059L413.544 126.808Z" fill="black" stroke="black" stroke-width="2.6" stroke-linecap="round" stroke-linejoin="round"/>
<path d="M416.524 130.693C416.447 132.054 415.434 132.675 414.261 132.077C413.088 131.479 412.205 129.895 412.282 128.534C412.359 127.172 413.372 126.551 414.545 127.149C415.718 127.748 416.601 129.331 416.524 130.693Z" fill="url(#paint55_linear_230_54)" stroke="black" stroke-width="2.6" stroke-linecap="round" stroke-linejoin="round"/>
<path d="M420.062 128.727C419.985 130.089 418.971 130.71 417.798 130.112C416.625 129.513 415.742 127.93 415.819 126.568C415.896 125.207 416.909 124.586 418.083 125.184C419.256 125.782 420.139 127.366 420.062 128.727Z" fill="black" stroke="black" stroke-width="2.6" stroke-linecap="round" stroke-linejoin="round"/>
<path d="M440.96 125.833L445.285 136.554L452.378 132.578L446.826 122.598L440.96 125.833Z" fill="black" stroke="black" stroke-width="2.6" stroke-linecap="round" stroke-linejoin="round"/>
<path d="M446.915 133.603C446.755 136.326 444.728 137.563 442.388 136.372C440.047 135.181 438.276 132.008 438.43 129.291C438.584 126.574 440.616 125.332 442.957 126.523C445.297 127.713 447.069 130.886 446.915 133.603Z" fill="url(#paint56_linear_230_54)" stroke="black" stroke-width="2.6" stroke-linecap="round" stroke-linejoin="round"/>
<path d="M453.527 129.935C453.367 132.658 451.341 133.894 449 132.703C446.66 131.513 444.888 128.34 445.042 125.622C445.202 122.899 447.229 121.663 449.569 122.854C451.91 124.044 453.681 127.217 453.527 129.935Z" fill="black" stroke="black" stroke-width="2.6" stroke-linecap="round" stroke-linejoin="round"/>
<path d="M456.668 134.549L460.993 145.276L468.085 141.3L462.539 131.319L456.668 134.549Z" fill="black" stroke="black" stroke-width="2.6" stroke-linecap="round" stroke-linejoin="round"/>
<path d="M462.628 142.325C462.468 145.048 460.442 146.284 458.101 145.093C455.761 143.903 453.989 140.73 454.143 138.013C454.303 135.29 456.33 134.053 458.67 135.244C461.011 136.435 462.782 139.608 462.628 142.325Z" fill="url(#paint57_linear_230_54)" stroke="black" stroke-width="2.6" stroke-linecap="round" stroke-linejoin="round"/>
<path d="M469.235 138.656C469.075 141.379 467.049 142.616 464.708 141.425C462.368 140.234 460.596 137.061 460.75 134.344C460.91 131.621 462.936 130.385 465.277 131.576C467.617 132.766 469.389 135.939 469.235 138.656Z" fill="black" stroke="black" stroke-width="2.6" stroke-linecap="round" stroke-linejoin="round"/>
<path d="M472.565 143.373L476.89 154.1L483.983 150.118L478.431 140.143L472.565 143.373Z" fill="black" stroke="black" stroke-width="2.6" stroke-linecap="round" stroke-linejoin="round"/>
<path d="M478.52 151.149C478.36 153.872 476.333 155.108 473.993 153.918C471.652 152.727 469.881 149.554 470.035 146.837C470.195 144.114 472.221 142.878 474.562 144.068C476.902 145.259 478.674 148.432 478.52 151.149Z" fill="url(#paint58_linear_230_54)" stroke="black" stroke-width="2.6" stroke-linecap="round" stroke-linejoin="round"/>
<path d="M485.132 147.48C484.972 150.203 482.946 151.439 480.605 150.249C478.265 149.058 476.493 145.885 476.647 143.168C476.807 140.445 478.834 139.209 481.174 140.399C483.515 141.59 485.286 144.763 485.132 147.48Z" fill="black" stroke="black" stroke-width="2.6" stroke-linecap="round" stroke-linejoin="round"/>
<path opacity="0.3" d="M152.544 380.46L-3 457.4L96.8147 512.619L226.064 421.265L152.544 380.46Z" fill="url(#paint59_linear_230_54)"/>
<path opacity="0.5" d="M414.101 197.177L337.151 245.101L443.657 352.859L547.098 271L414.101 197.177Z" fill="url(#paint60_linear_230_54)"/>
<path d="M238.803 464.673L214.403 478.214L295.703 496.255L238.803 464.673Z" fill="black" stroke="black" stroke-width="2.6" stroke-linecap="round" stroke-linejoin="round"/>
<path d="M336.403 351.675L411.885 366.145" stroke="black" stroke-width="2.6" stroke-linecap="round" stroke-linejoin="round"/>
<path d="M347.507 523.633C328.013 523.633 313.236 515.276 296.539 505.836C276.162 494.318 253.065 481.256 215.292 481.124C195.117 481.056 177.667 477.695 164.839 471.417C153.202 465.721 145.552 457.649 143.295 448.677C139.911 435.227 148.527 421.903 166.338 413.022C175.267 408.573 180.096 404.078 181.098 399.281C182.638 391.916 175.469 383.667 166.397 373.219C156.875 362.259 145.025 348.616 139.769 331.11C135.941 318.367 132.546 299.568 138.08 282.353C141.434 271.923 146.465 267.046 146.672 266.841C147.253 266.289 148.189 266.294 148.77 266.847C149.344 267.405 149.344 268.305 148.764 268.858C148.716 268.903 143.964 273.557 140.848 283.39C135.616 299.887 138.922 318.014 142.619 330.313C147.703 347.237 159.334 360.63 168.678 371.385C178.259 382.42 185.826 391.13 184.007 399.834C182.798 405.605 177.619 410.595 167.707 415.54C151.187 423.777 143.135 435.905 146.18 447.993C149.67 461.859 169.869 478.105 215.31 478.265C253.883 478.396 277.347 491.663 298.05 503.37C317.384 514.301 334.081 523.741 358.558 519.878C388.877 515.093 395.987 508.343 396.616 503.518C397.795 494.449 377.637 483.904 369.774 480.612C369.022 480.298 368.684 479.455 369.01 478.738C369.336 478.014 370.207 477.689 370.959 478.003C371.262 478.128 378.484 481.176 385.642 485.773C395.602 492.176 400.289 498.266 399.56 503.871C398.452 512.405 385.198 518.563 359.044 522.687C355.009 523.325 351.181 523.615 347.525 523.615L347.507 523.633Z" fill="#F4A261"/>
<path d="M537.019 475.753C535.189 475.753 533.405 475.673 531.675 475.514C520.755 474.5 512.394 470.239 508.738 463.819C504.49 456.356 507.47 447.925 516.34 442.342C519.161 440.565 522.431 437.939 521.957 435.524C521.306 432.185 514.059 428.864 502.078 426.415C495.004 424.968 488.581 421.293 483.995 416.075L483.888 415.956C483.361 415.358 483.438 414.458 484.06 413.951C484.688 413.444 485.618 413.518 486.145 414.116L486.252 414.235C490.418 418.975 496.254 422.313 502.689 423.629C516.483 426.449 523.948 430.277 524.867 435C525.483 438.178 523.16 441.454 517.958 444.729C510.48 449.435 507.879 456.39 511.328 462.451C514.504 468.028 522.023 471.76 531.953 472.677C540.598 473.48 555.352 472.517 576.523 463.374C607.233 450.113 624.167 434.418 622.982 420.331C621.963 408.22 607.316 397.937 581.749 391.381C565.905 387.319 552.063 382.34 541.712 376.991C529.506 370.679 522.189 363.929 519.949 356.928C518.082 351.089 519.771 345.215 524.956 339.473C533.95 329.51 537.683 320.247 536.06 311.947C534.069 301.762 524.322 292.55 505.391 282.969C471.955 266.05 458.735 253.551 448.111 243.508C439.71 235.567 433.636 229.825 420.666 225.171C408.561 220.824 400.176 206.366 397.658 185.511C394.838 162.087 400.147 138.15 409.497 132.157C410.178 131.718 411.097 131.895 411.553 132.55C412.009 133.205 411.825 134.088 411.144 134.527C402.772 139.893 397.943 163.089 400.603 185.181C402.985 204.937 410.676 218.54 421.703 222.499C435.266 227.37 441.849 233.596 450.185 241.475C460.673 251.387 473.72 263.72 506.765 280.445C532.777 293.604 537.6 304.422 538.969 311.417C540.77 320.623 536.806 330.689 527.189 341.342C522.722 346.292 521.235 351.259 522.781 356.096C526.585 368.019 548.354 379.879 582.507 388.635C616.951 397.465 625.133 410.624 625.933 420.109C627.225 435.472 609.663 452.192 577.737 465.978C562.818 472.42 548.87 475.759 537.013 475.759L537.019 475.753Z" fill="#F4A261"/>
<defs>
<linearGradient id="paint0_linear_230_54" x1="423.542" y1="459.089" x2="321.557" y2="183.493" gradientUnits="userSpaceOnUse">
<stop stop-color="#BA6CDF"/>
<stop offset="1" stop-color="#1F092A"/>
</linearGradient>
<linearGradient id="paint1_linear_230_54" x1="442.891" y1="385.158" x2="427.379" y2="328.906" gradientUnits="userSpaceOnUse">
<stop stop-color="#BA6CDF"/>
<stop offset="1" stop-color="#1F092A"/>
</linearGradient>
<linearGradient id="paint2_linear_230_54" x1="422.222" y1="374.84" x2="415.592" y2="352.214" gradientUnits="userSpaceOnUse">
<stop stop-color="#BA6CDF"/>
<stop offset="1" stop-color="#1F092A"/>
</linearGradient>
<linearGradient id="paint3_linear_230_54" x1="302.878" y1="463.606" x2="287.948" y2="404.143" gradientUnits="userSpaceOnUse">
<stop stop-color="#BA6CDF"/>
<stop offset="1" stop-color="#1F092A"/>
</linearGradient>
<linearGradient id="paint4_linear_230_54" x1="302.878" y1="449.947" x2="297.161" y2="412.442" gradientUnits="userSpaceOnUse">
<stop stop-color="#BA6CDF"/>
<stop offset="1" stop-color="#1F092A"/>
</linearGradient>
<linearGradient id="paint5_linear_230_54" x1="312.203" y1="463.04" x2="278.296" y2="426.611" gradientUnits="userSpaceOnUse">
<stop stop-color="#BA6CDF"/>
<stop offset="1" stop-color="#1F092A"/>
</linearGradient>
<linearGradient id="paint6_linear_230_54" x1="343.664" y1="361.699" x2="395.984" y2="289.226" gradientUnits="userSpaceOnUse">
<stop offset="0.159305" stop-color="#39B5EB"/>
<stop offset="0.444808" stop-color="#6C62E5"/>
<stop offset="0.910024"/>
</linearGradient>
<linearGradient id="paint7_linear_230_54" x1="417.514" y1="375.558" x2="451.723" y2="351.723" gradientUnits="userSpaceOnUse">
<stop offset="0.159305" stop-color="#39B5EB"/>
<stop offset="0.444808" stop-color="#6C62E5"/>
<stop offset="0.910024"/>
</linearGradient>
<linearGradient id="paint8_linear_230_54" x1="422.222" y1="369.248" x2="415.599" y2="346.633" gradientUnits="userSpaceOnUse">
<stop stop-color="#BA6CDF"/>
<stop offset="1" stop-color="#1F092A"/>
</linearGradient>
<linearGradient id="paint9_linear_230_54" x1="424.509" y1="374.358" x2="410.962" y2="355.421" gradientUnits="userSpaceOnUse">
<stop stop-color="#BA6CDF"/>
<stop offset="1" stop-color="#1F092A"/>
</linearGradient>
<linearGradient id="paint10_linear_230_54" x1="435.331" y1="376.849" x2="423.333" y2="362.303" gradientUnits="userSpaceOnUse">
<stop stop-color="#BA6CDF"/>
<stop offset="1" stop-color="#1F092A"/>
</linearGradient>
<linearGradient id="paint11_linear_230_54" x1="382.969" y1="413.147" x2="367.465" y2="356.906" gradientUnits="userSpaceOnUse">
<stop stop-color="#BA6CDF"/>
<stop offset="1" stop-color="#1F092A"/>
</linearGradient>
<linearGradient id="paint12_linear_230_54" x1="390.612" y1="420.847" x2="373.748" y2="390.066" gradientUnits="userSpaceOnUse">
<stop stop-color="#BA6CDF"/>
<stop offset="1" stop-color="#1F092A"/>
</linearGradient>
<linearGradient id="paint13_linear_230_54" x1="324.396" y1="400.178" x2="345.981" y2="372.014" gradientUnits="userSpaceOnUse">
<stop offset="0.159305" stop-color="#39B5EB"/>
<stop offset="0.444808" stop-color="#6C62E5"/>
<stop offset="0.910024"/>
</linearGradient>
<linearGradient id="paint14_linear_230_54" x1="379.863" y1="412.372" x2="371.94" y2="402.768" gradientUnits="userSpaceOnUse">
<stop stop-color="#BA6CDF"/>
<stop offset="1" stop-color="#1F092A"/>
</linearGradient>
<linearGradient id="paint15_linear_230_54" x1="352.81" y1="429.887" x2="337.299" y2="373.635" gradientUnits="userSpaceOnUse">
<stop stop-color="#BA6CDF"/>
<stop offset="1" stop-color="#1F092A"/>
</linearGradient>
<linearGradient id="paint16_linear_230_54" x1="360.452" y1="437.589" x2="343.588" y2="406.808" gradientUnits="userSpaceOnUse">
<stop stop-color="#BA6CDF"/>
<stop offset="1" stop-color="#1F092A"/>
</linearGradient>
<linearGradient id="paint17_linear_230_54" x1="345.244" y1="427.59" x2="337.121" y2="414.334" gradientUnits="userSpaceOnUse">
<stop stop-color="#BA6CDF"/>
<stop offset="1" stop-color="#1F092A"/>
</linearGradient>
<linearGradient id="paint18_linear_230_54" x1="329.198" y1="418.443" x2="323.136" y2="402.276" gradientUnits="userSpaceOnUse">
<stop stop-color="#BA6CDF"/>
<stop offset="1" stop-color="#1F092A"/>
</linearGradient>
<linearGradient id="paint19_linear_230_54" x1="329.202" y1="414.84" x2="325.475" y2="401.811" gradientUnits="userSpaceOnUse">
<stop stop-color="#BA6CDF"/>
<stop offset="1" stop-color="#1F092A"/>
</linearGradient>
<linearGradient id="paint20_linear_230_54" x1="413.128" y1="396.405" x2="397.624" y2="340.164" gradientUnits="userSpaceOnUse">
<stop stop-color="#BA6CDF"/>
<stop offset="1" stop-color="#1F092A"/>
</linearGradient>
<linearGradient id="paint21_linear_230_54" x1="420.771" y1="404.109" x2="403.898" y2="373.322" gradientUnits="userSpaceOnUse">
<stop stop-color="#BA6CDF"/>
<stop offset="1" stop-color="#1F092A"/>
</linearGradient>
<linearGradient id="paint22_linear_230_54" x1="393.741" y1="390.277" x2="382.789" y2="367.27" gradientUnits="userSpaceOnUse">
<stop stop-color="#BA6CDF"/>
<stop offset="1" stop-color="#1F092A"/>
</linearGradient>
<linearGradient id="paint23_linear_230_54" x1="386.874" y1="385.124" x2="382.448" y2="370.663" gradientUnits="userSpaceOnUse">
<stop stop-color="#BA6CDF"/>
<stop offset="1" stop-color="#1F092A"/>
</linearGradient>
<linearGradient id="paint24_linear_230_54" x1="475.794" y1="409.425" x2="462.014" y2="390.966" gradientUnits="userSpaceOnUse">
<stop stop-color="#BA6CDF"/>
<stop offset="1" stop-color="#1F092A"/>
</linearGradient>
<linearGradient id="paint25_linear_230_54" x1="483.766" y1="413.765" x2="478.166" y2="406.272" gradientUnits="userSpaceOnUse">
<stop stop-color="#BA6CDF"/>
<stop offset="1" stop-color="#1F092A"/>
</linearGradient>
<linearGradient id="paint26_linear_230_54" x1="361.336" y1="473.973" x2="347.556" y2="455.514" gradientUnits="userSpaceOnUse">
<stop stop-color="#BA6CDF"/>
<stop offset="1" stop-color="#1F092A"/>
</linearGradient>
<linearGradient id="paint27_linear_230_54" x1="369.302" y1="478.319" x2="363.702" y2="470.826" gradientUnits="userSpaceOnUse">
<stop stop-color="#BA6CDF"/>
<stop offset="1" stop-color="#1F092A"/>
</linearGradient>
<linearGradient id="paint28_linear_230_54" x1="382.318" y1="8.14115" x2="367.357" y2="101.849" gradientUnits="userSpaceOnUse">
<stop stop-color="#372BBD" stop-opacity="0"/>
<stop offset="1" stop-color="#372BBD"/>
</linearGradient>
<linearGradient id="paint29_linear_230_54" x1="216.737" y1="394.873" x2="109.689" y2="253.321" gradientUnits="userSpaceOnUse">
<stop stop-color="#BA6CDF"/>
<stop offset="1" stop-color="#1F092A"/>
</linearGradient>
<linearGradient id="paint30_linear_230_54" x1="451.838" y1="145.108" x2="384.956" y2="504.505" gradientUnits="userSpaceOnUse">
<stop offset="0.159305" stop-color="#39B5EB"/>
<stop offset="0.375593" stop-color="#6C62E5"/>
<stop offset="0.910024"/>
</linearGradient>
<linearGradient id="paint31_linear_230_54" x1="288.758" y1="179.435" x2="18.1605" y2="-175.813" gradientUnits="userSpaceOnUse">
<stop stop-color="#BA6CDF"/>
<stop offset="1" stop-color="#1F092A"/>
</linearGradient>
<linearGradient id="paint32_linear_230_54" x1="164.215" y1="260.159" x2="150.777" y2="236.856" gradientUnits="userSpaceOnUse">
<stop stop-color="#BA6CDF"/>
<stop offset="1" stop-color="#1F092A"/>
</linearGradient>
<linearGradient id="paint33_linear_230_54" x1="579.354" y1="230.608" x2="453.643" y2="-50.4856" gradientUnits="userSpaceOnUse">
<stop stop-color="#BA6CDF"/>
<stop offset="1" stop-color="#1F092A"/>
</linearGradient>
<linearGradient id="paint34_linear_230_54" x1="238.412" y1="48.5164" x2="492.514" y2="-213.709" gradientUnits="userSpaceOnUse">
<stop offset="0.159305" stop-color="#39B5EB"/>
<stop offset="0.444808" stop-color="#6C62E5"/>
<stop offset="0.910024"/>
</linearGradient>
<linearGradient id="paint35_linear_230_54" x1="626.557" y1="-20.2728" x2="695.258" y2="273.433" gradientUnits="userSpaceOnUse">
<stop offset="0.159305" stop-color="#39B5EB"/>
<stop offset="0.444808" stop-color="#6C62E5"/>
<stop offset="0.910024"/>
</linearGradient>
<linearGradient id="paint36_linear_230_54" x1="426.106" y1="165.989" x2="401.461" y2="163.191" gradientUnits="userSpaceOnUse">
<stop stop-color="#BA6CDF"/>
<stop offset="1" stop-color="#1F092A"/>
</linearGradient>
<linearGradient id="paint37_linear_230_54" x1="517.101" y1="238.177" x2="459.858" y2="89.7648" gradientUnits="userSpaceOnUse">
<stop stop-color="#BA6CDF"/>
<stop offset="1" stop-color="#1F092A"/>
</linearGradient>
<linearGradient id="paint38_linear_230_54" x1="-57.1147" y1="114.31" x2="260.412" y2="-133.501" gradientUnits="userSpaceOnUse">
<stop offset="0.159305" stop-color="#39B5EB"/>
<stop offset="0.444808" stop-color="#6C62E5"/>
<stop offset="0.910024"/>
</linearGradient>
<linearGradient id="paint39_linear_230_54" x1="335.164" y1="-30.1862" x2="361.518" y2="217.23" gradientUnits="userSpaceOnUse">
<stop offset="0.159305" stop-color="#39B5EB"/>
<stop offset="0.444808" stop-color="#6C62E5"/>
<stop offset="0.910024"/>
</linearGradient>
<linearGradient id="paint40_linear_230_54" x1="111.281" y1="236.951" x2="190.396" y2="176.916" gradientUnits="userSpaceOnUse">
<stop offset="0.159305" stop-color="#39B5EB"/>
<stop offset="0.444808" stop-color="#6C62E5"/>
<stop offset="0.910024"/>
</linearGradient>
<linearGradient id="paint41_linear_230_54" x1="165.338" y1="187.979" x2="223.648" y2="156.247" gradientUnits="userSpaceOnUse">
<stop offset="0.159305" stop-color="#39B5EB"/>
<stop offset="0.444808" stop-color="#6C62E5"/>
<stop offset="0.910024"/>
</linearGradient>
<linearGradient id="paint42_linear_230_54" x1="153.194" y1="79.8691" x2="359.139" y2="-52.9761" gradientUnits="userSpaceOnUse">
<stop offset="0.159305" stop-color="#39B5EB"/>
<stop offset="0.444808" stop-color="#6C62E5"/>
<stop offset="0.910024"/>
</linearGradient>
<linearGradient id="paint43_linear_230_54" x1="197.111" y1="183.008" x2="236.957" y2="162.81" gradientUnits="userSpaceOnUse">
<stop offset="0.159305" stop-color="#39B5EB"/>
<stop offset="0.444808" stop-color="#6C62E5"/>
<stop offset="0.910024"/>
</linearGradient>
<linearGradient id="paint44_linear_230_54" x1="211.277" y1="172.151" x2="251.112" y2="151.959" gradientUnits="userSpaceOnUse">
<stop offset="0.159305" stop-color="#39B5EB"/>
<stop offset="0.444808" stop-color="#6C62E5"/>
<stop offset="0.910024"/>
</linearGradient>
<linearGradient id="paint45_linear_230_54" x1="331.893" y1="166.338" x2="222.482" y2="-59.599" gradientUnits="userSpaceOnUse">
<stop stop-color="#BA6CDF"/>
<stop offset="1" stop-color="#1F092A"/>
</linearGradient>
<linearGradient id="paint46_linear_230_54" x1="183.514" y1="117.852" x2="255.653" y2="81.5293" gradientUnits="userSpaceOnUse">
<stop offset="0.159305" stop-color="#39B5EB"/>
<stop offset="0.444808" stop-color="#6C62E5"/>
<stop offset="0.910024"/>
</linearGradient>
<linearGradient id="paint47_linear_230_54" x1="354.728" y1="56.9695" x2="400.015" y2="43.4765" gradientUnits="userSpaceOnUse">
<stop offset="0.159305" stop-color="#39B5EB"/>
<stop offset="0.444808" stop-color="#6C62E5"/>
<stop offset="0.910024"/>
</linearGradient>
<linearGradient id="paint48_linear_230_54" x1="167.075" y1="165.757" x2="140.171" y2="244.398" gradientUnits="userSpaceOnUse">
<stop stop-color="#372BBD" stop-opacity="0"/>
<stop offset="1" stop-color="#372BBD"/>
</linearGradient>
<linearGradient id="paint49_linear_230_54" x1="203.878" y1="193.635" x2="38.5358" y2="-94.0497" gradientUnits="userSpaceOnUse">
<stop stop-color="#BA6CDF"/>
<stop offset="1" stop-color="#1F092A"/>
</linearGradient>
<linearGradient id="paint50_linear_230_54" x1="228.414" y1="15.1106" x2="211.207" y2="81.5495" gradientUnits="userSpaceOnUse">
<stop stop-color="#372BBD" stop-opacity="0"/>
<stop offset="1" stop-color="#372BBD"/>
</linearGradient>
<linearGradient id="paint51_linear_230_54" x1="402.535" y1="361.123" x2="354.245" y2="246.195" gradientUnits="userSpaceOnUse">
<stop stop-color="#BA6CDF"/>
<stop offset="1" stop-color="#1F092A"/>
</linearGradient>
<linearGradient id="paint52_linear_230_54" x1="394.658" y1="344.641" x2="380.371" y2="305.933" gradientUnits="userSpaceOnUse">
<stop stop-color="#BA6CDF"/>
<stop offset="1" stop-color="#1F092A"/>
</linearGradient>
<linearGradient id="paint53_linear_230_54" x1="362.521" y1="376.83" x2="358.869" y2="439.295" gradientUnits="userSpaceOnUse">
<stop stop-color="#AD64D0"/>
<stop offset="1" stop-color="#AD64D0" stop-opacity="0"/>
</linearGradient>
<linearGradient id="paint54_linear_230_54" x1="422.441" y1="129.202" x2="409.371" y2="113.701" gradientUnits="userSpaceOnUse">
<stop stop-color="#BA6CDF"/>
<stop offset="1" stop-color="#1F092A"/>
</linearGradient>
<linearGradient id="paint55_linear_230_54" x1="415.708" y1="130.73" x2="409.166" y2="122.979" gradientUnits="userSpaceOnUse">
<stop stop-color="#BA6CDF"/>
<stop offset="1" stop-color="#1F092A"/>
</linearGradient>
<linearGradient id="paint56_linear_230_54" x1="445.283" y1="133.679" x2="432.214" y2="118.179" gradientUnits="userSpaceOnUse">
<stop stop-color="#BA6CDF"/>
<stop offset="1" stop-color="#1F092A"/>
</linearGradient>
<linearGradient id="paint57_linear_230_54" x1="460.996" y1="142.401" x2="447.926" y2="126.9" gradientUnits="userSpaceOnUse">
<stop stop-color="#BA6CDF"/>
<stop offset="1" stop-color="#1F092A"/>
</linearGradient>
<linearGradient id="paint58_linear_230_54" x1="476.888" y1="151.225" x2="463.817" y2="135.724" gradientUnits="userSpaceOnUse">
<stop stop-color="#BA6CDF"/>
<stop offset="1" stop-color="#1F092A"/>
</linearGradient>
<linearGradient id="paint59_linear_230_54" x1="167.834" y1="376.455" x2="156.713" y2="488.832" gradientUnits="userSpaceOnUse">
<stop stop-color="#AD64D0"/>
<stop offset="1" stop-color="#AD64D0" stop-opacity="0"/>
</linearGradient>
<linearGradient id="paint60_linear_230_54" x1="463.789" y1="197.177" x2="420.655" y2="313.758" gradientUnits="userSpaceOnUse">
<stop stop-color="#574FB7"/>
<stop offset="1" stop-color="#574FB7" stop-opacity="0"/>
</linearGradient>
</defs>
</svg>
