<svg width="246" height="223" viewBox="0 0 246 223" fill="none" xmlns="http://www.w3.org/2000/svg">
<path d="M73.078 51.5875L39.9894 121.85L136.971 99.0337L164.662 31.5211L73.078 51.5875ZM134.564 96.2175L74.8628 110.261L91.4165 75.1434L148.82 61.4534L134.564 96.2175ZM89.1136 72.3084L70.7468 111.226L45.8668 117.08L75.3526 54.446L159.214 36.0797L150.346 57.6954L89.1136 72.3084Z" fill="black"/>
<path d="M54.7374 34.7621L0 150.557L41.7996 223L200.11 188.294L245.582 73.2899L203.279 0L54.7374 34.7621ZM43.4127 219.281L4.43017 151.569L155.324 116.228L196.239 185.776L43.4127 219.281ZM154.872 112.947L4.79229 148.096L56.9948 37.6146L199.696 4.22699L154.872 112.947ZM241.905 73.5912L198.544 183.267L157.938 114.195L202.753 5.54966L241.905 73.5912Z" fill="black"/>
<path d="M196.184 185.738L43.2424 219.236L4.23418 151.538L155.227 116.205L196.184 185.738Z" fill="#FF69B4"/>
<path d="M203.012 5.64557L242.289 73.7311L198.81 183.481L158.076 114.369L203.012 5.64557Z" fill="#FF69B4"/>
<path d="M56.8669 37.6544L4.70464 148.196L154.669 113.029L199.477 4.23419L56.8669 37.6544ZM136.755 99.3988L39.9823 122.217L72.9997 51.9484L164.387 31.8803L136.755 99.3988Z" fill="#FF69B4"/>
<path d="M159.487 36.2257L150.617 57.8213L89.3515 72.4159L70.9978 111.297L46.1055 117.146L75.6004 54.5843L159.487 36.2257Z" fill="#FFB2EF"/>
</svg>
